G75*
%MOIN*%
%OFA0B0*%
%FSLAX25Y25*%
%IPPOS*%
%LPD*%
%AMOC8*
5,1,8,0,0,1.08239X$1,22.5*
%
%ADD10C,0.13398*%
%ADD11R,0.06800X0.16800*%
%ADD12R,0.09461X0.04146*%
%ADD13R,0.04934X0.04737*%
%ADD14R,0.07099X0.07887*%
%ADD15R,0.12611X0.06312*%
%ADD16R,0.05950X0.05950*%
%ADD17C,0.05950*%
%ADD18OC8,0.07800*%
%ADD19R,0.07800X0.07800*%
%ADD20R,0.05524X0.06312*%
%ADD21C,0.06800*%
%ADD22OC8,0.07100*%
%ADD23R,0.07887X0.07099*%
%ADD24R,0.08674X0.07099*%
%ADD25R,0.07099X0.08674*%
%ADD26C,0.08200*%
%ADD27C,0.06600*%
%ADD28R,0.05918X0.08674*%
%ADD29C,0.06343*%
%ADD30C,0.04800*%
D10*
X0009256Y0033933D03*
X0058262Y0127890D03*
X0058256Y0127933D03*
X0058256Y0221933D03*
X0057768Y0222425D03*
X0149185Y0222927D03*
X0149256Y0222933D03*
X0149175Y0128396D03*
X0149256Y0127933D03*
X0266256Y0033933D03*
X0268256Y0342933D03*
X0009256Y0342933D03*
D11*
X0069256Y0340933D03*
X0079256Y0340933D03*
X0089256Y0340933D03*
D12*
X0091256Y0329346D03*
X0091256Y0318520D03*
D13*
X0097260Y0323933D03*
X0085252Y0323933D03*
D14*
X0054768Y0337933D03*
X0043744Y0337933D03*
D15*
X0099807Y0297933D03*
X0118705Y0297933D03*
D16*
X0089256Y0222433D03*
X0078256Y0049933D03*
X0244256Y0328933D03*
D17*
X0234256Y0328933D03*
X0224256Y0328933D03*
X0214256Y0328933D03*
X0204256Y0328933D03*
X0194256Y0328933D03*
X0184256Y0328933D03*
X0174256Y0328933D03*
X0117734Y0222435D03*
X0108240Y0222431D03*
X0098748Y0222433D03*
X0078256Y0069933D03*
X0078256Y0059933D03*
X0078256Y0039933D03*
D18*
X0196256Y0058933D03*
D19*
X0186256Y0058933D03*
D20*
X0182350Y0341933D03*
X0194161Y0341933D03*
D21*
X0090256Y0154933D02*
X0084256Y0154933D01*
X0084256Y0144933D02*
X0090256Y0144933D01*
X0090256Y0134933D02*
X0084256Y0134933D01*
X0084256Y0124933D02*
X0090256Y0124933D01*
X0090256Y0114933D02*
X0084256Y0114933D01*
X0084256Y0104933D02*
X0090256Y0104933D01*
X0186256Y0080933D02*
X0186256Y0074933D01*
X0196256Y0074933D02*
X0196256Y0080933D01*
X0206256Y0080933D02*
X0206256Y0074933D01*
D22*
X0071256Y0271933D03*
X0064256Y0314933D03*
X0055256Y0314933D03*
D23*
X0169256Y0222445D03*
X0169256Y0211421D03*
X0169256Y0200445D03*
X0169256Y0189421D03*
X0218256Y0203421D03*
X0218256Y0214445D03*
D24*
X0100256Y0200445D03*
X0100256Y0189421D03*
X0085256Y0189421D03*
X0085256Y0200445D03*
D25*
X0154744Y0341933D03*
X0165768Y0341933D03*
D26*
X0181456Y0185833D03*
X0181456Y0168033D03*
X0181456Y0151833D03*
X0181456Y0134033D03*
X0181456Y0116833D03*
X0181456Y0099033D03*
X0207056Y0099033D03*
X0207056Y0116833D03*
X0207056Y0134033D03*
X0207056Y0151833D03*
X0207056Y0168033D03*
X0207056Y0185833D03*
D27*
X0150256Y0177933D03*
X0140256Y0177933D03*
X0130256Y0177933D03*
X0120256Y0177933D03*
X0110256Y0177933D03*
X0100256Y0177933D03*
X0090256Y0177933D03*
X0080256Y0177933D03*
X0070256Y0177933D03*
X0060256Y0177933D03*
X0050256Y0177933D03*
X0040256Y0177933D03*
X0030256Y0177933D03*
X0020256Y0177933D03*
X0020256Y0237933D03*
X0030256Y0237933D03*
X0040256Y0237933D03*
X0050256Y0237933D03*
X0060256Y0237933D03*
X0070256Y0237933D03*
X0080256Y0237933D03*
X0090256Y0237933D03*
X0100256Y0237933D03*
X0110256Y0237933D03*
X0120256Y0237933D03*
X0130256Y0237933D03*
X0140256Y0237933D03*
X0150256Y0237933D03*
D28*
X0078815Y0261437D03*
X0070941Y0261437D03*
X0063067Y0261437D03*
X0055193Y0261437D03*
X0047319Y0261437D03*
X0039445Y0261437D03*
X0031571Y0261437D03*
X0023697Y0261437D03*
X0023697Y0324429D03*
X0031571Y0324429D03*
X0039445Y0324429D03*
X0047319Y0324429D03*
X0055193Y0324429D03*
X0063067Y0324429D03*
X0070941Y0324429D03*
X0078815Y0324429D03*
D29*
X0183673Y0223067D03*
X0183689Y0202366D03*
X0204409Y0202319D03*
X0204394Y0223020D03*
D30*
X0089906Y0306733D03*
X0062456Y0339583D03*
X0048506Y0306733D03*
X0039506Y0306283D03*
X0031856Y0301333D03*
X0023306Y0290083D03*
X0042206Y0290983D03*
X0045806Y0277483D03*
X0047156Y0268483D03*
X0053456Y0250483D03*
M02*
