%
M48
M72
T01C0.02400
T02C0.03150
T03C0.03200
T04C0.03543
T05C0.03800
T06C0.04000
T07C0.12598
%
T01
X53456Y250483
X47156Y268483
X45806Y277483
X42206Y290983
X31856Y301333
X39506Y306283
X48506Y306733
X23306Y290083
X62456Y339583
X89906Y306733
T02
X89256Y222433
X98748Y222433
X108240Y222431
X117734Y222435
X174256Y328933
X184256Y328933
X194256Y328933
X204256Y328933
X214256Y328933
X224256Y328933
X234256Y328933
X244256Y328933
X78256Y69933
X78256Y59933
X78256Y49933
X78256Y39933
T03
X71256Y271933
X64256Y314933
X55256Y314933
T04
X183673Y223067
X183689Y202366
X204409Y202319
X204394Y223020
T05
X150256Y237933
X140256Y237933
X130256Y237933
X120256Y237933
X110256Y237933
X100256Y237933
X90256Y237933
X80256Y237933
X70256Y237933
X60256Y237933
X50256Y237933
X40256Y237933
X30256Y237933
X20256Y237933
X20256Y177933
X30256Y177933
X40256Y177933
X50256Y177933
X60256Y177933
X70256Y177933
X80256Y177933
X90256Y177933
X100256Y177933
X110256Y177933
X120256Y177933
X130256Y177933
X140256Y177933
X150256Y177933
T06
X181456Y185833
X181456Y168033
X181456Y151833
X181456Y134033
X181456Y116833
X181456Y99033
X186256Y77933
X196256Y77933
X206256Y77933
X196256Y58933
X186256Y58933
X207056Y99033
X207056Y116833
X207056Y134033
X207056Y151833
X207056Y168033
X207056Y185833
X87256Y154933
X87256Y144933
X87256Y134933
X87256Y124933
X87256Y114933
X87256Y104933
T07
X9256Y33933
X58262Y127890
X58256Y127933
X58256Y221933
X57768Y222425
X149185Y222927
X149256Y222933
X149175Y128396
X149256Y127933
X266256Y33933
X268256Y342933
X9256Y342933
M30
